# xmcd
#
# Track frame offsets:
#	150
#	17574
#	32485
#	51469
#	59618
#	74159
#	88115
#	103999
#	114430
#	128737
#	143433
#	157013
#
# Disc length: 2297 seconds
#
# Revision: 0
# Processed by: cddbd v1.5.2PL0 Copyright (c) Steve Scherf et al.
# Submitted via: EasyCDDAExtractor 16.0.6.1
#
DISCID=ac08f70c
DTITLE=Συλλογικός δίσκος - Στων αγγέλων τα μπουζούκια 02-Χρ. Νικολόπουλος
DYEAR=2009
DGENRE=Λαϊκή
TTITLE0=Δημητριάδης Μιχάλης - Των αγγέλων τα μπουζούκια [Χρ. Νικολόπουλος-Μ. Ε
TTITLE0=λευθερίου]
TTITLE1=Παπαδοπούλου Πίτσα - Σαλονικιός [Χρ. Νικολόπουλος-Λ. Παπαδόπουλος]
TTITLE2=Κοντολάζος Δημήτρης - Στο σταυροδρόμι [Χρ. Νικολόπουλος-Ε. Ατραΐδης, Γ
TTITLE2=Βασιλόπουλος]
TTITLE3=Δημητριάδης Μιχάλης - Υπάρχω [Χρ. Νικολόπουλος-Πυθαγόρας]
TTITLE4=Μαντώ - Καρδιά μου εγώ [Χρ. Νικολόπουλος-Λ. Νικολακοπούλου]
TTITLE5=Παπαδοπούλου Πίτσα - Κάτω απ'το πουκάμισό μου [Χρ. Νικολόπουλος-Πυθαγό
TTITLE5=ρας]
TTITLE6=Κοντολάζος Δημήτρης - Αγριολούλουδο [Χρ. Νικολόπουλος-Πυθαγόρας]
TTITLE7=Παϊτέρης Βασίλης - Με σκότωσε γιατί την αγαπούσα [Χρ. Νικολόπουλος-Λ. 
TTITLE7=Παπαδόπουλος]
TTITLE8=Καρακώστας Χρήστος - Μαϊστράλια [Χρ. Νικολόπουλος-Δ. Γκόγκος Μπαγιαντέ
TTITLE8=ρας]
TTITLE9=Κούκα Κατερίνα - Μιά ζωή κυρία [Χρ. Νικολόπουλος-Γιάννης Τζουανόπουλος
TTITLE9=]
TTITLE10=Παπαδοπούλου Πίτσα - Νυχτερίδες κι αράχνες [Χρ. Νικολόπουλος-Κ. Βίρβο
TTITLE10=ς]
TTITLE11=Νικολάου Θάνος - Όταν χορεύεις μάτια μου [Χρ. Νικολόπουλος-Λ. Χαψιάδη
TTITLE11=ς]
EXTD=
EXTT0=
EXTT1=
EXTT2=
EXTT3=
EXTT4=
EXTT5=
EXTT6=
EXTT7=
EXTT8=
EXTT9=
EXTT10=
EXTT11=
PLAYORDER=
